<?xml version="1.0" encoding="utf-8"?>
<!-- Generator: Adobe Illustrator 16.0.0, SVG Export Plug-In . SVG Version: 6.00 Build 0)  -->
<!DOCTYPE svg PUBLIC "-//W3C//DTD SVG 1.1//EN" "http://www.w3.org/Graphics/SVG/1.1/DTD/svg11.dtd">
<svg version="1.1" id="Layer_1" xmlns="http://www.w3.org/2000/svg" xmlns:xlink="http://www.w3.org/1999/xlink" x="0px" y="0px"
	 width="400px" height="400px" viewBox="0 0 400 400" enable-background="new 0 0 400 400" xml:space="preserve">
<g>
	<g>
		<polygon points="61.398,295.31 39.729,251.391 30.261,251.391 57.042,304.791 57.042,336.26 65.767,336.26 65.767,304.905 
			92.71,251.391 83.3,251.391 		"/>
	</g>
	<g>
		<polygon points="105.425,336.26 149.049,336.26 149.049,327.535 114.15,327.535 114.15,297.396 149.049,297.396 149.049,289.463 
			114.15,289.463 114.15,259.322 149.842,259.322 149.842,251.391 105.425,251.391 		"/>
	</g>
	<g>
		<path d="M195.621,251.391l-32.707,84.869h8.714l10.108-26.969h37.701l9.993,26.969h8.946l-32.591-84.869H195.621z
			 M184.583,302.152l15.917-42.466l16.093,42.466H184.583z"/>
	</g>
	<g>
		<path d="M300.67,295.059c3.874-4.743,5.811-10.543,5.811-17.397c0-8.365-2.729-14.84-8.191-19.408
			c-5.46-4.57-13.208-6.862-23.236-6.862H252.16v84.869h8.726v-31.727h16.336l19.266,31.727h10.108l-20.738-33.192
			C291.86,302.565,296.797,299.804,300.67,295.059z M278.335,295.015L278.335,295.015h-17.449v-35.692h11.9
			c8.984,0,15.356,1.657,19.112,4.581s5.635,7.794,5.635,14.415c0,4.919-1.674,8.9-5.025,12.037
			c-3.349,3.137-7.696,4.659-13.041,4.659H278.335z"/>
	</g>
	<g>
		<path d="M362.876,298.081c-2.654-3.853-6.517-6.847-11.59-8.977c-1.511-0.581-3.68-1.335-6.507-2.266
			c-5.112-1.587-8.578-3.059-10.398-4.414c-1.666-1.2-2.914-2.645-3.748-4.329c-0.832-1.684-1.249-3.649-1.249-5.896
			c0-4.221,1.326-7.678,3.98-10.37c2.652-2.69,6.09-4.037,10.312-4.037c3.911,0,7.029,1.156,9.353,3.653
			c2.324,2.497,3.697,5.807,4.125,10.566h7.959c-0.428-7.138-2.519-12.491-6.273-16.404c-3.758-3.913-8.812-5.821-15.163-5.821
			c-6.661,0-12.094,2.174-16.295,6.471c-4.203,4.3-6.304,9.831-6.304,16.569c0,5.267,1.375,9.571,4.125,12.901
			c2.749,3.334,7.203,6.008,13.361,8.021c0.427,0.154,1.084,0.369,1.975,0.639c11.929,3.565,17.894,9.375,17.894,17.43
			c0,5.307-1.433,9.578-4.3,12.812c-2.866,3.233-6.643,4.85-11.327,4.85c-4.764,0-8.561-1.691-11.387-4.925
			c-2.827-3.233-4.299-7.331-4.415-12.883h-8.191c0.116,7.931,2.354,14.016,6.71,18.781c4.357,4.764,9.982,7.18,16.876,7.18
			c7.358,0,13.283-2.489,17.776-7.504s6.719-11.02,6.681-18.028C366.854,306.603,365.528,301.934,362.876,298.081z"/>
	</g>
	<g>
		<path d="M159.454,100.325c-13.652-14.397-31.139-21.597-52.461-21.597c-6.975,0-13.576,1.023-19.803,3.064
			c-6.229,2.042-12.479,5.301-18.758,9.784l11.06-60.685h79.869V9.477H61.408L42.127,117.262l16.292,7.636
			c5.68-8.269,12.23-14.417,19.654-18.452c7.421-4.036,15.966-6.05,25.633-6.05c16.34,0,29.519,4.985,39.532,14.947
			c10.015,9.964,15.02,23.069,15.02,39.309c0,16.242-4.983,29.844-14.945,40.803c-9.965,10.963-22.37,16.442-37.215,16.442
			c-14.648,0-26.73-4.663-36.246-13.88c-9.516-9.215-14.972-21.184-16.366-37.047H32.113c1.495,21.416,9.042,37.943,22.643,50.946
			c13.6,13.003,30.514,19.532,50.742,19.532c20.524,0,38.062-7.433,52.611-22.331c14.546-14.895,21.821-32.849,21.821-53.874
			C179.93,133.027,173.104,114.724,159.454,100.325z"/>
	</g>
	<g>
		<path d="M344.751,201.136c4.185-5.877,7.299-12.677,9.191-20.4c1.892-7.722,2.915-17.461,2.915-29.22V84.856
			c0-24.909-6.677-44.465-19.878-58.664c-13.203-14.199-31.251-21.299-54.068-21.299c-12.554,0-24.059,2.517-34.469,7.548
			c-10.415,5.033-19.117,12.331-26.092,21.897c-4.685,6.178-7.982,12.927-10.022,20.252c-2.045,7.323-2.999,17.811-2.999,31.46
			v64.567c0,12.656,0.924,22.994,2.919,31.012c1.992,8.022,5.145,14.823,9.531,20.403c7.372,9.564,16.273,16.865,26.734,21.896
			c10.464,5.03,21.912,7.547,34.367,7.547c12.854,0,24.659-2.641,35.419-7.921C329.061,218.275,337.875,210.803,344.751,201.136z
			 M283.811,211.095c-28.787,0-52.205-23.659-52.205-52.738c0-21.454,12.753-39.944,30.995-48.175
			c-14.815-7.074-25.066-22.117-25.066-39.489c0-24.151,19.811-43.8,44.158-43.8c24.351,0,44.16,19.649,44.16,43.8
			c0,16.61-9.369,31.091-23.145,38.513c19.471,7.667,33.31,26.801,33.31,49.15C336.018,187.437,312.597,211.095,283.811,211.095z"/>
	</g>
	<g>
		<path d="M283.811,116.014c-23.054,0-41.808,18.995-41.808,42.343c0,23.347,18.754,42.34,41.808,42.34
			c7.322,0,14.207-1.921,20.199-5.285c-2.35-0.254-4.665-0.682-6.876-1.309c-12.794-3.625-21.257-13.232-24.533-26.003
			c-1.531-5.96,7.667-8.487,9.194-2.534c2.59,10.094,9.037,17.512,19.419,19.724c3.319,0.707,6.705,0.933,10.095,0.746
			c0.51-0.028,3.055-0.299,2.671-0.22c0.189-0.029,0.377-0.054,0.564-0.089c0.421-0.081,0.823-0.106,1.207-0.091
			c6.151-7.375,9.869-16.893,9.869-27.279C325.62,135.009,306.865,116.014,283.811,116.014z M284.4,153.047
			c-2.674,0-4.842-4.768-4.842-10.651c0-5.882,2.168-10.651,4.842-10.651s4.841,4.769,4.841,10.651
			C289.241,148.279,287.074,153.047,284.4,153.047z M298.44,153.047c-2.675,0-4.842-4.768-4.842-10.651
			c0-5.882,2.167-10.651,4.842-10.651c2.674,0,4.842,4.769,4.842,10.651C303.282,148.279,301.114,153.047,298.44,153.047z"/>
	</g>
	<g>
		<path d="M289.186,73.178c1.75-5.88,10.955-3.374,9.194,2.534c-4.798,16.118-19.158,24.233-34.65,25.209
			c4.91,2.871,10.577,4.6,16.627,4.825c1.144-0.077,2.293-0.129,3.454-0.129c0.311,0,0.615,0.018,0.925,0.023
			c18.124-1.534,32.403-16.617,32.403-34.946c0-19.347-15.901-35.086-35.446-35.086c-19.544,0-35.444,15.739-35.444,35.086
			c0,7.61,2.468,14.656,6.644,20.411c0.503-0.073,1.039-0.07,1.608,0.023c0.019,0.003,0.028,0.005,0.044,0.007
			c0.092,0.01,0.198,0.02,0.337,0.033c1.256,0.126,2.517,0.218,3.779,0.249c3.46,0.085,6.969-0.041,10.363-0.764
			C278.841,88.563,286.243,83.057,289.186,73.178z M284.4,44.601c2.674,0,4.841,4.769,4.841,10.651
			c0,5.883-2.167,10.651-4.841,10.651s-4.842-4.768-4.842-10.651C279.559,49.37,281.727,44.601,284.4,44.601z M266.004,55.251
			c0-5.882,2.167-10.651,4.841-10.651s4.841,4.769,4.841,10.651c0,5.883-2.167,10.651-4.841,10.651S266.004,61.135,266.004,55.251z"
			/>
	</g>
</g>
<g>
	<path d="M57.467,390.358h-4.899V368.25h-4.525v-3.831h9.424V390.358z"/>
	<path d="M90.667,390.358h-5.255l5.879-8.837c-0.404,0.096-0.766,0.164-1.087,0.205c-0.321,0.042-0.629,0.062-0.926,0.062
		c-2.102,0-3.898-0.84-5.389-2.521c-1.491-1.679-2.236-3.689-2.236-6.028c0-2.565,0.884-4.757,2.654-6.575
		c1.77-1.815,3.967-2.725,6.591-2.725c2.494,0,4.638,0.879,6.432,2.637c1.793,1.757,2.69,3.824,2.69,6.199
		c0,1.236-0.238,2.479-0.712,3.733c-0.475,1.251-1.467,3.024-2.976,5.316L90.667,390.358z M90.809,377.584
		c1.259,0,2.28-0.418,3.064-1.255c0.784-0.839,1.176-1.927,1.176-3.27s-0.377-2.425-1.132-3.251
		c-0.754-0.825-1.761-1.239-3.02-1.239c-1.235,0-2.25,0.429-3.046,1.283c-0.795,0.854-1.193,1.937-1.193,3.243
		s0.395,2.381,1.185,3.224C88.632,377.164,89.622,377.584,90.809,377.584z"/>
	<path d="M129.251,364.419h5.255l-5.879,8.872c0.381-0.095,0.736-0.163,1.069-0.205c0.332-0.04,0.647-0.062,0.944-0.062
		c2.138,0,3.943,0.845,5.416,2.529c1.472,1.688,2.209,3.754,2.209,6.201c0,0.843-0.157,1.728-0.472,2.654
		c-0.315,0.925-0.745,1.792-1.292,2.601c-0.879,1.282-1.939,2.242-3.18,2.877c-1.242,0.636-2.675,0.953-4.303,0.953
		c-2.518,0-4.667-0.877-6.449-2.628c-1.781-1.751-2.672-3.845-2.672-6.279c0-1.211,0.252-2.46,0.757-3.74
		c0.505-1.283,1.482-3.019,2.931-5.202L129.251,364.419z M124.869,381.558c0,1.343,0.401,2.453,1.202,3.331
		c0.802,0.879,1.785,1.317,2.949,1.317c1.247,0,2.266-0.42,3.056-1.265c0.79-0.843,1.184-1.916,1.184-3.224
		c0-1.307-0.395-2.381-1.184-3.225c-0.79-0.843-1.785-1.266-2.984-1.266s-2.203,0.413-3.011,1.239
		C125.272,379.291,124.869,380.322,124.869,381.558z"/>
	<path d="M174.902,364.419v4.49h-8.872l-0.837,4.454c0.535-0.31,1.096-0.541,1.683-0.696c0.589-0.154,1.232-0.23,1.934-0.23
		c2.387,0,4.418,0.893,6.092,2.68c1.675,1.788,2.512,3.936,2.512,6.441c0,2.554-0.902,4.745-2.708,6.573
		c-1.805,1.829-3.99,2.744-6.556,2.744c-2.447,0-4.522-0.802-6.227-2.404c-1.704-1.605-2.657-3.664-2.859-6.184h4.864
		c0.119,1.152,0.57,2.096,1.354,2.823c0.784,0.731,1.717,1.096,2.797,1.096c1.2,0,2.201-0.44,3.001-1.325
		c0.802-0.887,1.203-2.005,1.203-3.359c0-1.33-0.404-2.411-1.212-3.242c-0.808-0.83-1.864-1.246-3.171-1.246
		c-0.784,0-1.452,0.152-2.004,0.462c-0.553,0.31-1.007,0.778-1.363,1.408l-4.329-0.979l2.512-13.505H174.902z"/>
	<path d="M209.928,378.457v4.204h-9.193v-4.204H209.928z"/>
	<path d="M248.894,390.358h-17.156v-4.846l9.407-8.802c0.891-0.83,1.564-1.65,2.021-2.457c0.458-0.809,0.687-1.58,0.687-2.316
		c0-0.974-0.31-1.779-0.927-2.413c-0.617-0.638-1.413-0.955-2.387-0.955c-1.046,0-1.856,0.334-2.432,0.997
		c-0.576,0.666-0.864,1.599-0.864,2.798v0.517h-5.095v-0.214c0-2.554,0.784-4.646,2.352-6.279s3.551-2.449,5.949-2.449
		c2.447,0,4.479,0.778,6.093,2.333c1.616,1.556,2.424,3.456,2.424,5.702c0,1.223-0.318,2.419-0.953,3.59
		c-0.636,1.17-1.606,2.354-2.913,3.553l-7.27,6.575h11.063V390.358z"/>
	<path d="M270.881,373.504c0-1.484,0.096-2.61,0.286-3.374c0.188-0.769,0.498-1.488,0.926-2.166c0.844-1.329,1.936-2.34,3.277-3.028
		c1.343-0.689,2.887-1.033,4.633-1.033c1.531,0,2.933,0.3,4.204,0.898c1.271,0.602,2.375,1.482,3.313,2.646
		c0.546,0.689,0.938,1.506,1.176,2.449c0.237,0.945,0.356,2.172,0.356,3.68v7.695c0,1.438-0.093,2.548-0.276,3.332
		c-0.185,0.784-0.49,1.521-0.917,2.21c-0.844,1.329-1.936,2.339-3.278,3.028c-1.343,0.688-2.892,1.033-4.649,1.033
		c-1.532,0-2.939-0.304-4.223-0.908c-1.283-0.605-2.376-1.486-3.277-2.637c-0.546-0.678-0.941-1.476-1.186-2.396
		c-0.243-0.921-0.365-2.154-0.365-3.696V373.504z M275.958,373.47v7.802c0,1.675,0.33,2.922,0.988,3.742
		c0.661,0.818,1.666,1.229,3.021,1.229c1.378,0,2.394-0.416,3.046-1.246c0.654-0.831,0.98-2.12,0.98-3.867v-7.517v-0.321
		c0-1.591-0.336-2.783-1.006-3.571c-0.672-0.79-1.679-1.185-3.021-1.185s-2.346,0.408-3.01,1.229
		C276.291,370.582,275.958,371.819,275.958,373.47z"/>
	<path d="M320.469,390.358h-4.899V368.25h-4.524v-3.831h9.424V390.358z"/>
	<path d="M360.666,364.419v4.49h-8.871l-0.838,4.454c0.535-0.31,1.096-0.541,1.683-0.696c0.59-0.154,1.233-0.23,1.934-0.23
		c2.388,0,4.419,0.893,6.093,2.68c1.675,1.788,2.513,3.936,2.513,6.441c0,2.554-0.902,4.745-2.707,6.573
		c-1.807,1.829-3.992,2.744-6.557,2.744c-2.447,0-4.522-0.802-6.228-2.404c-1.704-1.605-2.656-3.664-2.858-6.184h4.863
		c0.118,1.152,0.57,2.096,1.354,2.823c0.784,0.731,1.716,1.096,2.797,1.096c1.199,0,2.2-0.44,3.001-1.325
		c0.803-0.887,1.203-2.005,1.203-3.359c0-1.33-0.404-2.411-1.211-3.242c-0.809-0.83-1.865-1.246-3.171-1.246
		c-0.784,0-1.453,0.152-2.004,0.462c-0.554,0.31-1.008,0.778-1.363,1.408l-4.329-0.979l2.511-13.505H360.666z"/>
</g>
</svg>
