<?xml version="1.0" encoding="utf-8"?>
<!-- Generator: Adobe Illustrator 16.0.0, SVG Export Plug-In . SVG Version: 6.00 Build 0)  -->
<!DOCTYPE svg PUBLIC "-//W3C//DTD SVG 1.1//EN" "http://www.w3.org/Graphics/SVG/1.1/DTD/svg11.dtd">
<svg version="1.1" id="Layer_1" xmlns="http://www.w3.org/2000/svg" xmlns:xlink="http://www.w3.org/1999/xlink" x="0px" y="0px"
	 width="392px" height="406px" viewBox="-36.5 -35.5 392 406" enable-background="new -36.5 -35.5 392 406" xml:space="preserve">
<g id="Layer_1_1_">
	<g>
		<polygon fill="#FFFFFF" points="16.193,181.44 32.236,179.804 32.47,179.649 38.873,173.92 56.704,173.92 67.193,164.481 
			91.628,150.144 91.62,150.011 103.08,136.261 101.024,134.205 98.277,131.771 88.439,132.789 87.814,131.782 87.722,131.841 
			77.84,116.664 79.33,110.705 80.176,106.476 80.394,106.447 80.567,105.758 91.452,104.706 99.833,91.491 99.329,87.719 
			97.823,82.577 97.141,72.017 92.971,49.883 87.577,52.281 82.945,49.304 54.311,71.683 55.351,78.269 48.387,82.796 
			48.387,91.787 43.037,99.433 32.791,99.786 22.686,105.469 23.022,117.572 13.537,128.197 1.492,122.175 -9.521,125.539 
			-8.173,149.494 -24.605,165.928 -23.37,176.741 -12.829,182.161 3.69,175.883 		"/>
		<polygon fill="#FFFFFF" points="82.447,107.941 80.371,116.239 89.694,130.558 99.606,129.805 106.463,135.876 94.678,150.019 
			95.018,163.981 102.739,172.024 132.778,182.586 142.236,167.062 149.555,167.062 158.376,175.883 166.994,174.226 
			185.243,180.667 188.393,187.249 227.371,170.634 201.342,153.756 202.062,144.394 198.582,134.739 191.448,115.296 
			191.12,82.975 183.855,84.79 174.965,79.32 159.84,83.826 155.29,92.921 139.195,93.271 129.955,100.458 117.843,101.192 
			101.906,89.24 102.279,92.029 92.824,106.938 		"/>
		<polygon fill="#FFFFFF" points="80.799,250.059 94.071,250.059 99.424,245.003 97.105,234.066 101.676,215.428 116.75,193.068 
			124.369,186.536 129.818,187.444 131.526,184.641 101.428,174.058 92.688,164.951 92.382,152.431 68.487,166.45 57.61,176.273 
			39.773,176.273 33.307,182.061 15.811,183.845 3.621,178.429 -11.88,184.319 -8.907,190.564 -7.802,204.189 -14.074,208.021 
			-14.677,217.083 -9.952,220.796 -9.254,231.27 4.093,249.62 19.724,257.268 29.426,257.615 44.802,268.448 77.609,288.711 
			74.116,262.678 		"/>
		<polygon fill="#FFFFFF" points="114.355,261.426 123.599,264.752 135.258,274.471 141.927,267.482 157.461,263.253 
			174.487,260.583 179.204,254.45 161.411,252.076 161.146,252.111 160.839,251.92 153.704,248.352 146.701,235.743 
			123.169,202.871 123.534,198.136 123.478,197.816 123.729,197.439 128.498,189.609 125.067,189.038 118.405,194.751 
			103.862,216.393 99.518,234.105 102,245.805 95.007,252.412 82.215,252.412 76.549,263.111 80.198,290.318 85.903,293.947 
			104.712,266.245 		"/>
		<polygon fill="#FFFFFF" points="186.34,197.998 186.918,189.619 183.542,182.562 166.812,176.657 157.594,178.429 
			148.581,169.415 143.558,169.415 125.87,198.447 125.581,202.198 147.79,233.225 164.162,214.561 179.999,208.951 
			179.941,208.848 185.289,199.933 		"/>
		<polygon fill="#FFFFFF" points="149.127,235.268 155.407,246.572 161.766,249.752 180.858,252.298 180.972,252.152 
			191.088,228.982 180.778,211.171 165.527,216.574 		"/>
		<polygon fill="#FFFFFF" points="281.581,222.467 282.675,209.073 282.675,204.738 285.251,200.73 280.568,193.554 
			280.664,192.821 280.564,192.667 281.79,183.977 281.08,180.599 267.025,170.794 243.93,171.128 233.62,174.683 229.752,172.176 
			189.291,189.424 188.634,198.934 182.672,208.868 193.939,228.332 182.925,253.473 175.779,262.761 157.889,265.568 
			143.177,269.582 135.442,277.684 122.41,266.826 114.506,263.98 106.315,268.074 88.182,294.779 105.128,311.103 126.734,344.369 
			137.977,358.581 146.921,358.581 169.786,339.167 177.35,335.205 191.494,337.838 196.766,322.358 214.521,308.083 
			225.146,298.518 233.032,299.307 240.766,309.396 245.548,308.271 256.973,297.499 258.016,272.827 266.951,269.721 
			282.189,272.49 297.734,271.107 306.459,274.463 317.074,269.873 297.725,229.837 		"/>
		<polygon fill="#FFFFFF" points="203.796,152.543 233.938,172.084 243.52,168.779 267.75,168.43 283.191,179.201 284.29,184.427 
			288.746,185.131 293.652,177.156 293.98,159.071 281.646,145.018 281.646,136.875 295.098,123.797 301.057,128.638 
			311.657,128.319 335.68,115.306 337.809,108.314 331.734,95.403 329.396,82.705 321.186,73.81 321.114,73.506 315.67,50.027 
			306.459,34.892 299.096,33.888 292.266,27.459 295.723,22.275 286.864,13.063 297.439,5.405 298.07,-12.253 290.562,-13.959 
			290.562,-27.719 279.91,-22.249 273.656,-10.733 271.902,-0.92 261.363,8.602 261.363,20.657 238.509,38.511 234.389,37.48 
			230.814,40.23 230.1,54.735 227.438,63.1 216.977,63.1 213.227,65.512 215.857,73.739 212.548,79.118 193.8,82.131 193.8,114.532 
			204.447,144.069 		"/>
		<path fill="#FFE4B6" d="M193.8,82.131l18.748-3.014l3.312-5.379l-2.633-8.228l3.752-2.412h10.463l2.66-8.365l0.715-14.505
			l3.572-2.75l4.121,1.029l22.856-17.853V8.602l10.538-9.522l1.754-9.812l6.252-11.517l10.652-5.469v13.759l7.508,1.707
			l-0.629,17.658l-10.574,7.658l8.855,9.211l-3.459,5.186l6.832,6.427l7.363,1.004l9.211,15.135l5.443,23.48l0.072,0.303
			l8.213,8.897l2.336,12.696l6.074,12.913l-2.129,6.991l-24.022,13.013l-10.603,0.319l-5.957-4.841l-13.453,13.079v8.143
			l12.336,14.053l-0.328,18.085l-4.905,7.973l-4.456-0.703l-1.102-5.226L267.75,168.43l-24.23,0.35l-9.582,3.305l-30.142-19.541
			l0.651-8.472l-10.647-29.54V82.131L193.8,82.131z M102.279,92.029l-0.372-2.789l15.937,11.952l12.112-0.734l9.241-7.187
			l16.095-0.349l4.55-9.096l15.124-4.505l8.892,5.471l7.266-1.815l0.328,32.321l7.132,19.443l3.479,9.656l-0.719,9.361
			l26.029,16.877l-38.979,16.615l-3.15-6.58l-18.249-6.443l-8.618,1.657l-8.82-8.82h-7.32l-9.457,15.523l-30.04-10.562l-7.721-8.043
			l-0.34-13.962l11.785-14.143l-6.856-6.073l-9.912,0.754l-9.323-14.319l2.076-8.299l10.377-1.004L102.279,92.029z M179.999,208.951
			l-15.837,5.609l-16.373,18.662l-22.208-31.023l0.289-3.752l17.687-29.032h5.024l9.013,9.014l9.219-1.771l16.729,5.904l3.376,7.058
			l-0.578,8.379l-1.051,1.935l-5.35,8.916L179.999,208.951z M180.778,211.171l10.31,17.812l-10.116,23.17l-0.114,0.146
			l-19.095-2.546l-6.356-3.18l-6.28-11.304l16.399-18.694L180.778,211.171z M-23.37,176.741l-1.235-10.813l16.432-16.434
			l-1.349-23.955l11.014-3.364l12.045,6.021l9.485-10.625l-0.336-12.103l10.105-5.685l10.247-0.353l5.35-7.646v-8.99l6.964-4.527
			l-1.041-6.586l28.633-22.38l4.634,2.979l5.394-2.397l4.17,22.132l0.682,10.561l1.506,5.143l0.503,3.772l-8.38,13.214
			l-10.885,1.053l-2.727,10.905l10.601,16.125l9.836-1.018l4.803,4.49l-11.458,13.751l0.008,0.132l-24.435,14.338l-10.489,9.439
			H38.873l-6.402,5.728l-0.235,0.154l-16.042,1.639L3.69,175.885l-16.521,6.276L-23.37,176.741z M44.802,268.448l-15.376-10.833
			l-9.702-0.348L4.092,249.62l-13.346-18.353l-0.699-10.473l-4.726-3.713l0.604-9.061l6.272-3.834l-1.105-13.625l-2.973-6.245
			l15.501-5.893l12.19,5.418l17.497-1.784l6.466-5.787H57.61l10.878-9.825l23.895-14.019l0.305,12.521l8.741,9.107l30.098,10.582
			l-1.708,2.805l-5.448-0.908l-7.619,6.532l-15.075,22.359l-4.571,18.641l2.319,10.936l-5.353,5.057H80.799l-6.682,12.619
			l3.493,26.033L44.802,268.448z M85.903,293.947l-5.705-3.629l-3.65-27.207l5.666-10.702h12.792l6.993-6.604l-2.481-11.699
			l4.344-17.713l14.542-21.642l6.663-5.713l3.431,0.571l-4.769,7.829l-0.251,0.377l0.056,0.318l-0.365,4.735L146.7,235.74
			l7.002,12.607l7.135,3.568l0.307,0.189l0.266-0.031l17.792,2.373l-4.717,6.133l-17.025,2.671l-15.534,4.229l-6.669,6.986
			l-11.659-9.718l-9.245-3.326l-9.641,4.819L85.903,293.947z M306.459,274.463l-8.725-3.354l-15.545,1.382l-15.238-2.771
			l-8.936,3.107l-1.045,24.672l-11.424,10.772l-4.781,1.125l-7.733-10.091l-7.886-0.788l-10.625,9.564l-17.758,14.275l-5.271,15.479
			l-14.145-2.633l-7.563,3.962L146.92,358.58h-8.945l-11.244-14.212l-21.605-33.265L88.18,294.779l18.133-26.705l8.19-4.094
			l7.905,2.846l13.032,10.859l7.735-8.104l14.71-4.013l17.892-2.807l7.145-9.291l11.016-25.141l-11.268-19.463l5.961-9.936
			l0.657-9.51l40.462-17.247l3.868,2.508l10.31-3.555l23.098-0.333l14.053,9.805l0.712,3.378l-1.226,8.69l0.1,0.154l-0.096,0.731
			l4.684,7.178l-2.576,4.008v4.337l-1.094,13.392l16.143,7.371l19.352,40.035L306.459,274.463z"/>
	</g>
	<g>
		<circle fill="#3D3D3F" cx="81.541" cy="66.195" r="3.751"/>
	</g>
	<g>
		<circle fill="#3D3D3F" cx="96.103" cy="72.52" r="3.75"/>
	</g>
	<g>
		<circle fill="#3D3D3F" cx="286.085" cy="2.802" r="3.75"/>
	</g>
	<g>
		<circle fill="#3D3D3F" cx="109.193" cy="99.289" r="3.751"/>
	</g>
	<g>
		<circle fill="#3D3D3F" cx="140.668" cy="121.94" r="3.75"/>
	</g>
	<g>
		<circle fill="#3D3D3F" cx="154.789" cy="127.676" r="3.75"/>
	</g>
	<g>
		<circle fill="#3D3D3F" cx="169.791" cy="149.886" r="3.75"/>
	</g>
	<g>
		<circle fill="#3D3D3F" cx="154.495" cy="154.74" r="3.75"/>
	</g>
	<g>
		<circle fill="#3D3D3F" cx="99.779" cy="166.653" r="3.75"/>
	</g>
	<g>
		<circle fill="#3D3D3F" cx="40.799" cy="202.1" r="3.75"/>
	</g>
	<g>
		<circle fill="#3D3D3F" cx="62.126" cy="198.57" r="3.75"/>
	</g>
	<g>
		<circle fill="#3D3D3F" cx="96.103" cy="198.423" r="3.75"/>
	</g>
	<g>
		<circle fill="#3D3D3F" cx="77.57" cy="247.99" r="3.75"/>
	</g>
	<g>
		<circle fill="#3D3D3F" cx="124.489" cy="210.189" r="3.75"/>
	</g>
	<g>
		<circle fill="#3D3D3F" cx="103.75" cy="261.375" r="3.75"/>
	</g>
	<g>
		<circle fill="#3D3D3F" cx="147.729" cy="230.928" r="3.75"/>
	</g>
	<g>
		<circle fill="#3D3D3F" cx="196.413" cy="251.814" r="3.75"/>
	</g>
	<g>
		<circle fill="#3D3D3F" cx="115.665" cy="194.893" r="3.75"/>
	</g>
	<g>
		<circle fill="#3D3D3F" cx="122.136" cy="186.068" r="3.75"/>
	</g>
	<g>
		<circle fill="#3D3D3F" cx="136.256" cy="172.831" r="3.75"/>
	</g>
	<g>
		<circle fill="#3D3D3F" cx="176.998" cy="174.155" r="3.75"/>
	</g>
	<g>
		<circle fill="#3D3D3F" cx="192.589" cy="154.593" r="3.751"/>
	</g>
</g>
<g id="Layer_2">
</g>
<g>
	<polygon fill="none" points="186.41,189.716 183.181,182.964 166.773,177.174 157.428,178.97 148.374,169.915 143.838,169.915 
		126.359,198.605 126.094,202.057 147.829,232.42 163.872,214.133 179.511,208.591 184.859,199.676 185.85,197.855 	"/>
	<polygon fill="none" points="114.321,260.884 114.323,260.883 123.919,264.368 135.218,273.785 141.66,267.037 157.328,262.771 
		174.21,260.119 178.277,254.831 161.411,252.581 161.034,252.631 160.575,252.346 153.342,248.729 153.342,248.729 153.34,248.727 
		146.262,235.984 132.853,217.255 122.656,203.014 122.656,203.014 122.655,203.012 123.029,198.158 122.949,197.705 
		123.312,197.161 127.685,189.981 125.215,189.569 118.782,195.086 104.327,216.598 100.031,234.113 102.547,245.977 
		95.206,252.912 82.516,252.912 77.066,263.205 80.663,290.021 85.762,293.266 104.371,265.855 114.32,260.883 	"/>
	<polygon fill="none" points="99.368,129.32 99.564,129.099 99.778,129.289 99.779,129.289 107.158,135.824 95.182,150.195 
		95.513,163.775 103.017,171.592 132.562,181.979 141.955,166.562 149.762,166.562 149.763,166.562 149.763,166.562 
		158.542,175.342 167.033,173.709 185.604,180.265 186.586,182.316 188.639,186.601 226.311,170.542 200.82,154.014 
		201.555,144.464 198.111,134.91 196.312,129.987 190.948,115.301 190.627,83.615 183.773,85.328 181.07,83.663 174.894,79.863 
		160.192,84.243 155.604,93.415 139.373,93.767 130.141,100.947 117.691,101.702 117.69,101.702 102.56,90.355 102.798,92.143 
		93.116,107.412 82.847,108.405 80.909,116.149 89.952,130.037 	"/>
	<polygon fill="none" points="155.769,246.193 161.914,249.268 180.598,251.759 190.527,229.014 180.554,211.781 165.817,217.002 
		149.735,235.333 	"/>
	<polygon fill="none" points="-11.042,180.947 3.705,175.342 16.275,180.93 31.67,179.358 32.063,179.318 32.196,179.231 
		32.516,178.944 38.682,173.42 56.512,173.42 66.94,164.05 91.11,149.868 91.109,149.843 102.079,136.682 102.394,136.304 
		98.102,132.292 88.19,133.318 88.189,133.317 88.18,133.318 87.998,133.025 87.645,132.488 87.576,132.533 87.088,131.783 
		86.879,131.794 87.031,131.695 77.369,116.856 77.302,116.755 77.302,116.754 78.194,113.189 78.846,110.581 79.756,106.027 
		79.992,105.996 80.079,105.647 80.167,105.294 91.161,104.231 99.313,91.377 98.833,87.785 97.324,82.609 96.642,72.049 
		95.181,64.297 92.597,50.597 87.534,52.848 82.973,49.916 54.851,71.896 55.565,76.42 55.896,78.51 55.896,78.511 48.887,83.067 
		48.887,91.943 48.887,91.944 43.304,99.924 32.93,100.282 23.194,105.757 23.527,117.757 13.655,128.815 1.447,122.712 -9,125.903 
		-7.661,149.689 -24.081,166.111 -22.903,176.419 -12.799,181.614 	"/>
	<polygon fill="none" points="78.798,252.768 80.498,249.559 80.498,249.559 93.873,249.559 98.876,244.832 96.592,234.061 
		96.619,233.948 101.261,215.148 116.425,192.688 124.221,186.005 124.223,186.005 124.224,186.005 129.567,186.896 
		130.778,184.907 101.149,174.49 92.193,165.157 91.903,153.292 68.785,166.854 57.803,176.773 39.964,176.773 33.52,182.541 
		15.729,184.355 3.606,178.969 -11.196,184.594 -8.409,190.524 -7.279,204.456 -13.592,208.314 -14.161,216.854 -9.468,220.54 
		-8.809,230.432 -8.765,231.091 -5.248,235.927 4.425,249.227 19.848,256.771 29.593,257.121 29.714,257.206 45.09,268.039 
		76.973,287.73 73.599,262.585 	"/>
	<polygon fill="none" points="331.242,95.493 328.932,82.938 320.729,74.052 320.628,73.621 315.201,50.218 306.154,35.355 
		298.869,34.361 291.614,27.534 295.083,22.333 286.105,12.995 296.949,5.144 297.557,-11.857 290.062,-13.56 290.062,-26.899 
		287.566,-25.618 280.275,-21.874 278.499,-18.602 274.136,-10.565 272.366,-0.664 261.866,8.824 261.866,20.899 257.995,23.923 
		238.624,39.055 234.501,38.024 231.305,40.484 230.578,54.885 227.807,63.599 227.805,63.599 227.805,63.6 217.123,63.6 
		213.818,65.725 216.404,73.805 212.854,79.575 194.3,82.558 194.3,114.444 204.954,144 204.954,144.002 204.316,152.285 
		234.005,171.532 243.512,168.279 267.904,167.928 283.641,178.903 284.71,183.985 288.496,184.583 293.156,177.011 
		293.479,159.255 281.146,145.207 281.146,136.664 295.066,123.128 295.068,123.13 295.068,123.128 301.229,128.132 
		311.523,127.823 335.261,114.964 337.273,108.353 	"/>
	<polygon fill="none" points="281.055,222.779 281.055,222.775 282.177,209.032 282.175,204.598 282.175,204.592 284.652,200.734 
		280.049,193.677 280.145,192.943 280.042,192.786 281.281,183.999 280.629,180.9 266.87,171.301 244.016,171.631 233.551,175.238 
		229.701,172.743 189.77,189.765 189.124,199.088 183.252,208.873 194.499,228.301 183.321,253.777 180.108,257.953 
		176.052,263.229 157.963,266.066 143.441,270.029 135.48,278.371 122.157,267.27 114.537,264.525 106.654,268.465 88.833,294.712 
		105.548,310.83 127.154,344.097 138.219,358.081 146.738,358.081 169.554,338.724 177.271,334.682 191.16,337.268 196.338,322.06 
		214.208,307.693 224.977,297.998 233.298,298.831 240.966,308.836 245.303,307.815 256.48,297.273 257.529,272.467 
		266.911,269.204 282.213,271.986 297.807,270.6 306.448,273.923 316.396,269.622 297.352,230.223 	"/>
</g>
</svg>
