<?xml version="1.0" encoding="utf-8"?>
<!-- Generator: Adobe Illustrator 16.0.0, SVG Export Plug-In . SVG Version: 6.00 Build 0)  -->
<!DOCTYPE svg PUBLIC "-//W3C//DTD SVG 1.1//EN" "http://www.w3.org/Graphics/SVG/1.1/DTD/svg11.dtd">
<svg version="1.1" id="Layer_1" xmlns="http://www.w3.org/2000/svg" xmlns:xlink="http://www.w3.org/1999/xlink" x="0px" y="0px"
	 width="30px" height="30px" viewBox="0 0 30 30" enable-background="new 0 0 30 30" xml:space="preserve">
<g>
	<path fill="#FFFFFF" d="M27.127,11.684c-1.711,1.184-3.434,2.367-5.129,3.562c-0.713,0.493-1.92,1.501-2.807,1.501H19.18h-0.011
		c-0.888,0-2.093-1.008-2.806-1.501c-1.699-1.195-3.419-2.378-5.119-3.562c-0.778-0.527-1.886-1.765-1.886-2.762
		c0-1.074,0.581-1.995,1.754-1.995h16.133C28.199,6.927,29,7.717,29,8.68C29,9.908,28.091,11.015,27.127,11.684z M29,20.605
		c0,0.963-0.79,1.752-1.754,1.752H11.114c-0.964,0-1.754-0.789-1.754-1.752v-8.704c0.329,0.362,0.702,0.68,1.107,0.954
		c1.819,1.238,3.661,2.477,5.447,3.781c0.92,0.68,2.061,1.512,3.255,1.512h0.011h0.012c1.193,0,2.334-0.832,3.254-1.512
		c1.785-1.293,3.629-2.543,5.457-3.781c0.396-0.274,0.768-0.592,1.098-0.954V20.605z"/>
</g>
</svg>
