<?xml version="1.0" encoding="utf-8"?>
<!-- Generator: Adobe Illustrator 16.0.0, SVG Export Plug-In . SVG Version: 6.00 Build 0)  -->
<!DOCTYPE svg PUBLIC "-//W3C//DTD SVG 1.1//EN" "http://www.w3.org/Graphics/SVG/1.1/DTD/svg11.dtd">
<svg version="1.1" id="Layer_1" xmlns="http://www.w3.org/2000/svg" xmlns:xlink="http://www.w3.org/1999/xlink" x="0px" y="0px"
	 width="176px" height="162px" viewBox="0 0 176 162" enable-background="new 0 0 176 162" xml:space="preserve">
<g>
	<defs>
		<rect id="SVGID_1_" x="18.898" y="6.483" width="137.295" height="147.857"/>
	</defs>
	<clipPath id="SVGID_2_">
		<use xlink:href="#SVGID_1_"  overflow="visible"/>
	</clipPath>
	<path clip-path="url(#SVGID_2_)" fill="#FFFFFF" d="M156.193,38.165c0-5.78-4.779-10.561-10.56-10.561h-10.561v-7.923
		c0-7.26-5.938-13.198-13.203-13.198h-5.275c-7.265,0-13.208,5.938-13.208,13.198v7.923H71.705v-7.923
		c0-7.26-5.938-13.198-13.2-13.198h-5.28c-7.262,0-13.206,5.938-13.206,13.198v7.923H29.458c-5.778,0-10.561,4.78-10.561,10.561
		v105.615c0,5.774,4.783,10.561,10.561,10.561h116.175c5.78,0,10.56-4.786,10.56-10.561V38.165z M124.513,43.444
		c0,1.401-1.237,2.638-2.643,2.638h-5.275c-1.405,0-2.643-1.237-2.643-2.638V19.681c0-1.4,1.237-2.638,2.643-2.638h5.275
		c1.405,0,2.643,1.237,2.643,2.638V43.444z M121.87,59.285h23.764v23.759H121.87V59.285z M90.186,59.285h26.399v23.759H90.186
		V59.285z M121.87,88.329h23.764v26.401H121.87V88.329z M61.145,43.444c0,1.401-1.242,2.638-2.64,2.638h-5.28
		c-1.403,0-2.64-1.237-2.64-2.638V19.681c0-1.4,1.237-2.638,2.64-2.638h5.28c1.397,0,2.64,1.237,2.64,2.638V43.444z M90.186,88.329
		h26.399v26.401H90.186V88.329z M121.87,120.011h23.764v23.764H121.87V120.011z M58.505,59.285h26.401v23.759H58.505V59.285z
		 M90.186,120.011h26.399v23.764H90.186V120.011z M29.458,59.285H53.22v23.759H29.458V59.285z M58.505,88.329h26.401v26.401H58.505
		V88.329z M29.458,88.329H53.22v26.401H29.458V88.329z M58.505,120.011h26.401v23.764H58.505V120.011z M29.458,120.011H53.22v23.764
		H29.458V120.011z"/>
</g>
</svg>
