<?xml version="1.0" encoding="utf-8"?>
<!-- Generator: Adobe Illustrator 16.0.0, SVG Export Plug-In . SVG Version: 6.00 Build 0)  -->
<!DOCTYPE svg PUBLIC "-//W3C//DTD SVG 1.1//EN" "http://www.w3.org/Graphics/SVG/1.1/DTD/svg11.dtd">
<svg version="1.1" id="Layer_1" xmlns="http://www.w3.org/2000/svg" xmlns:xlink="http://www.w3.org/1999/xlink" x="0px" y="0px"
	 width="176px" height="162px" viewBox="0 0 176 162" enable-background="new 0 0 176 162" xml:space="preserve">
<g>
	<path fill="#FFFFFF" d="M43.551,91.999H34.35c-6.86,0-13.314-3.292-13.314-10.912c0-5.559-0.205-24.232,8.511-24.232
		c1.441,0,8.581,5.833,17.848,5.833c3.157,0,6.179-0.55,9.131-1.576c-0.21,1.506-0.345,3.017-0.345,4.528
		c0,6.245,1.992,12.424,5.559,17.572C54.599,83.418,48.149,86.506,43.551,91.999z M47.394,56.855
		c-9.677,0-17.573-7.895-17.573-17.572c0-9.676,7.896-17.572,17.573-17.572c9.676,0,17.571,7.896,17.571,17.572
		C64.965,48.96,57.07,56.855,47.394,56.855z M116.926,144.715H56.935c-10.982,0-18.327-6.659-18.327-17.777
		c0-15.516,3.638-39.332,23.751-39.332c2.332,0,10.842,9.542,24.572,9.542c13.729,0,22.24-9.542,24.571-9.542
		c20.115,0,23.752,23.816,23.752,39.332C135.254,138.056,127.909,144.715,116.926,144.715z M86.931,91.999
		c-14.55,0-26.358-11.809-26.358-26.358c0-14.549,11.808-26.358,26.358-26.358s26.358,11.809,26.358,26.358
		C113.289,80.19,101.48,91.999,86.931,91.999z M126.469,56.855c-9.678,0-17.573-7.895-17.573-17.572
		c0-9.676,7.896-17.572,17.573-17.572c9.676,0,17.571,7.896,17.571,17.572C144.04,48.96,136.145,56.855,126.469,56.855z
		 M139.512,91.999h-9.201c-4.598-5.493-11.047-8.581-18.188-8.786c3.568-5.148,5.559-11.328,5.559-17.572
		c0-1.511-0.135-3.021-0.345-4.528c2.951,1.026,5.974,1.576,9.132,1.576c9.266,0,16.405-5.833,17.847-5.833
		c8.716,0,8.511,18.673,8.511,24.232C152.826,88.707,146.372,91.999,139.512,91.999z"/>
</g>
</svg>
