<?xml version="1.0" encoding="utf-8"?>
<!-- Generator: Adobe Illustrator 16.0.0, SVG Export Plug-In . SVG Version: 6.00 Build 0)  -->
<!DOCTYPE svg PUBLIC "-//W3C//DTD SVG 1.1//EN" "http://www.w3.org/Graphics/SVG/1.1/DTD/svg11.dtd">
<svg version="1.1" id="Layer_1" xmlns="http://www.w3.org/2000/svg" xmlns:xlink="http://www.w3.org/1999/xlink" x="0px" y="0px"
	 width="176px" height="162px" viewBox="0 0 176 162" enable-background="new 0 0 176 162" xml:space="preserve">
<g>
	<path fill="#FFFFFF" d="M167.418,130.767c0,2.913-2.413,5.325-5.326,5.325H12.974c-2.913,0-5.326-2.412-5.326-5.325V34.905
		c0-2.913,2.413-5.326,5.326-5.326h149.118c2.913,0,5.326,2.414,5.326,5.326V130.767z M156.767,61.533
		c-11.732,0-21.303-9.57-21.303-21.302H39.602c0,11.732-9.569,21.302-21.302,21.302v42.605c11.733,0,21.302,9.57,21.302,21.302
		h95.862c0-11.731,9.57-21.302,21.303-21.302V61.533z M87.533,117.453c-17.475,0-26.628-19.471-26.628-34.617
		c0-15.146,9.153-34.617,26.628-34.617s26.629,19.471,26.629,34.617C114.162,97.982,105.008,117.453,87.533,117.453z
		 M103.511,104.139v-7.989H92.859V58.871h-9.486l-12.316,11.4l6.408,6.658c1.997-1.749,3.245-2.663,4.578-4.744h0.165v23.965H71.556
		v7.989H103.511z"/>
</g>
</svg>
