<?xml version="1.0" encoding="utf-8"?>
<!-- Generator: Adobe Illustrator 16.0.0, SVG Export Plug-In . SVG Version: 6.00 Build 0)  -->
<!DOCTYPE svg PUBLIC "-//W3C//DTD SVG 1.1//EN" "http://www.w3.org/Graphics/SVG/1.1/DTD/svg11.dtd">
<svg version="1.1" id="Layer_1" xmlns="http://www.w3.org/2000/svg" xmlns:xlink="http://www.w3.org/1999/xlink" x="0px" y="0px"
	 width="176px" height="162px" viewBox="0 0 176 162" enable-background="new 0 0 176 162" xml:space="preserve">
<g>
	<path fill="#FFFFFF" d="M165.487,85.88c0-14.428-9.504-27.21-24.104-35.244c1.302,4.233,1.987,8.634,1.987,13.125
		c0,15.465-7.949,29.719-22.371,40.256c-13.389,9.678-30.926,15.028-49.494,15.028c-2.506,0-5.099-0.174-7.601-0.344
		c10.796,7.081,25.135,11.397,40.77,11.397c5.267,0,10.368-0.512,15.202-1.377c7.174,5.093,15.291,8.813,24.011,11.055
		c2.34,0.606,4.844,1.038,7.432,1.386c1.381,0.169,2.678-0.954,3.025-2.509c0.348-1.639-0.779-2.678-1.729-3.801
		c-3.373-3.8-7.169-7.168-10.105-14.337C156.505,112.394,165.487,99.959,165.487,85.88 M132.316,63.762
		c0-24.442-27.21-44.225-60.812-44.225c-33.601,0-60.811,19.783-60.811,44.225c0,13.995,8.982,26.523,22.977,34.638
		c-2.936,7.173-6.736,10.542-10.107,14.342c-0.949,1.123-2.074,2.161-1.726,3.801c0.258,1.466,1.465,2.504,2.764,2.504h0.261
		c2.588-0.344,5.094-0.78,7.427-1.381c8.722-2.246,16.842-5.957,24.013-11.059c4.836,0.869,9.936,1.385,15.202,1.385
		C105.106,107.991,132.316,88.21,132.316,63.762"/>
</g>
</svg>
