<?xml version="1.0" encoding="utf-8"?>
<!-- Generator: Adobe Illustrator 16.0.0, SVG Export Plug-In . SVG Version: 6.00 Build 0)  -->
<!DOCTYPE svg PUBLIC "-//W3C//DTD SVG 1.1//EN" "http://www.w3.org/Graphics/SVG/1.1/DTD/svg11.dtd">
<svg version="1.1" id="Layer_1" xmlns="http://www.w3.org/2000/svg" xmlns:xlink="http://www.w3.org/1999/xlink" x="0px" y="0px"
	 width="176px" height="162px" viewBox="0 0 176 162" enable-background="new 0 0 176 162" xml:space="preserve">
<g>
	<path fill="#FFFFFF" d="M127.752,54.68l-12.525,12.526l12.446,54.144c0.232,0.936-0.152,1.945-0.931,2.568l-9.957,7.469
		c-0.391,0.312-0.936,0.464-1.479,0.464c-0.153,0-0.312,0-0.545-0.079c-0.697-0.152-1.321-0.543-1.633-1.241l-21.707-39.52
		l-20.148,20.148l4.123,15.09c0.232,0.855,0,1.713-0.619,2.415l-7.468,7.469c-0.47,0.464-1.168,0.697-1.792,0.697
		c-0.08,0-0.08,0-0.153,0c-0.782-0.079-1.4-0.392-1.871-1.01l-14.705-19.604l-19.604-14.704c-0.618-0.391-0.93-1.088-1.009-1.792
		c-0.079-0.697,0.232-1.399,0.698-1.944l7.468-7.548c0.47-0.465,1.168-0.698,1.791-0.698c0.233,0,0.465,0,0.625,0.08l15.09,4.123
		l20.147-20.148L34.476,51.878c-0.698-0.386-1.168-1.089-1.322-1.866c-0.079-0.703,0.153-1.554,0.698-2.104l9.958-9.958
		c0.624-0.544,1.559-0.851,2.335-0.618l51.733,12.368l12.447-12.447c7.468-7.468,19.916-12.447,24.895-7.468
		C140.199,34.764,135.221,47.211,127.752,54.68z"/>
</g>
</svg>
