<?xml version="1.0" encoding="utf-8"?>
<!-- Generator: Adobe Illustrator 16.0.0, SVG Export Plug-In . SVG Version: 6.00 Build 0)  -->
<!DOCTYPE svg PUBLIC "-//W3C//DTD SVG 1.1//EN" "http://www.w3.org/Graphics/SVG/1.1/DTD/svg11.dtd">
<svg version="1.1" id="Layer_1" xmlns="http://www.w3.org/2000/svg" xmlns:xlink="http://www.w3.org/1999/xlink" x="0px" y="0px"
	 width="50px" height="46.25px" viewBox="0 0 50 46.25" enable-background="new 0 0 50 46.25" xml:space="preserve">
<g>
	<path fill="#FFFFFF" d="M30.977,45V26.068c0-3.41,0.354-6.621,1.063-9.635c0.711-3.01,1.804-5.654,3.277-7.93
		c1.475-2.274,3.358-4.093,5.652-5.458C43.263,1.683,45.937,1,48.994,1v8.527c-1.857,0-3.385,0.485-4.585,1.449
		c-1.204,0.967-2.186,2.248-2.95,3.837c-0.765,1.595-1.283,3.385-1.555,5.372c-0.274,1.99-0.41,3.953-0.41,5.883h9.665V45H30.977z
		 M1,45V26.068c0-3.41,0.353-6.621,1.065-9.635c0.708-3.01,1.801-5.654,3.275-7.93c1.474-2.274,3.358-4.093,5.651-5.458
		C13.285,1.683,15.959,1,19.019,1v8.527c-1.858,0-3.387,0.485-4.587,1.449c-1.203,0.967-2.186,2.248-2.948,3.837
		c-0.766,1.595-1.285,3.385-1.556,5.372c-0.274,1.99-0.41,3.953-0.41,5.883h9.665V45H1z"/>
</g>
</svg>
