<?xml version="1.0" encoding="utf-8"?>
<!-- Generator: Adobe Illustrator 16.0.0, SVG Export Plug-In . SVG Version: 6.00 Build 0)  -->
<!DOCTYPE svg PUBLIC "-//W3C//DTD SVG 1.1//EN" "http://www.w3.org/Graphics/SVG/1.1/DTD/svg11.dtd">
<svg version="1.1" id="Layer_1" xmlns="http://www.w3.org/2000/svg" xmlns:xlink="http://www.w3.org/1999/xlink" x="0px" y="0px"
	 width="176px" height="162px" viewBox="0 0 176 162" enable-background="new 0 0 176 162" xml:space="preserve">
<g>
	<path fill="#FFFFFF" d="M164.624,80.464c0-41.333-34.345-74.868-76.667-74.868c-42.329,0-76.669,33.535-76.669,74.868
		c0,41.337,34.34,74.872,76.669,74.872C130.279,155.336,164.624,121.802,164.624,80.464 M142.266,80.464
		c0,29.249-24.361,53.034-54.309,53.034c-29.951,0-54.312-23.785-54.312-53.034c0-29.244,24.361-53.03,54.312-53.03
		C117.902,27.435,142.266,51.22,142.266,80.464 M100.732,46.149c0-1.751-1.395-3.119-3.194-3.119H91.15
		c-1.797,0-3.193,1.368-3.193,3.119v34.315H65.594c-1.797,0-3.192,1.368-3.192,3.123v6.239c0,1.755,1.395,3.119,3.192,3.119h31.944
		c1.801,0,3.194-1.364,3.194-3.119V46.149z"/>
</g>
</svg>
