<?xml version="1.0" encoding="utf-8"?>
<!-- Generator: Adobe Illustrator 16.0.0, SVG Export Plug-In . SVG Version: 6.00 Build 0)  -->
<!DOCTYPE svg PUBLIC "-//W3C//DTD SVG 1.1//EN" "http://www.w3.org/Graphics/SVG/1.1/DTD/svg11.dtd">
<svg version="1.1" id="Layer_1" xmlns="http://www.w3.org/2000/svg" xmlns:xlink="http://www.w3.org/1999/xlink" x="0px" y="0px"
	 width="35.5px" height="30px" viewBox="0 0 35.5 30" enable-background="new 0 0 35.5 30" xml:space="preserve">
<g>
	<path fill="#FFFFFF" d="M30.832,10.793c0.015,0.18,0.015,0.361,0.015,0.542c0,5.516-4.199,11.873-11.873,11.873
		c-2.362,0-4.56-0.687-6.407-1.874c0.336,0.041,0.659,0.052,1.008,0.052c1.95,0,3.746-0.656,5.18-1.782
		c-1.834-0.04-3.372-1.242-3.901-2.895c0.259,0.041,0.517,0.065,0.789,0.065c0.374,0,0.749-0.051,1.097-0.141
		c-1.912-0.388-3.346-2.068-3.346-4.096c0-0.014,0-0.04,0-0.051c0.556,0.309,1.201,0.504,1.887,0.531
		c-1.123-0.751-1.859-2.03-1.859-3.477c0-0.776,0.207-1.486,0.568-2.105c2.054,2.531,5.141,4.185,8.602,4.365
		c-0.062-0.309-0.102-0.633-0.102-0.957c0-2.297,1.86-4.171,4.174-4.171c1.199,0,2.285,0.504,3.046,1.316
		c0.943-0.181,1.848-0.527,2.651-1.006c-0.312,0.968-0.97,1.782-1.835,2.299c0.84-0.091,1.653-0.322,2.401-0.644
		C32.357,9.461,31.646,10.201,30.832,10.793z"/>
</g>
</svg>
