<?xml version="1.0" encoding="utf-8"?>
<!-- Generator: Adobe Illustrator 16.0.0, SVG Export Plug-In . SVG Version: 6.00 Build 0)  -->
<!DOCTYPE svg PUBLIC "-//W3C//DTD SVG 1.1//EN" "http://www.w3.org/Graphics/SVG/1.1/DTD/svg11.dtd">
<svg version="1.1" id="Layer_1" xmlns="http://www.w3.org/2000/svg" xmlns:xlink="http://www.w3.org/1999/xlink" x="0px" y="0px"
	 width="176px" height="162px" viewBox="0 0 176 162" enable-background="new 0 0 176 162" xml:space="preserve">
<g>
	<defs>
		<rect id="SVGID_1_" x="46.909" y="10.5" width="82.744" height="142.22"/>
	</defs>
	<clipPath id="SVGID_2_">
		<use xlink:href="#SVGID_1_"  overflow="visible"/>
	</clipPath>
	<path clip-path="url(#SVGID_2_)" fill="#FFFFFF" d="M88.282,46.7c5.009,0,9.277-1.762,12.806-5.293
		c3.531-3.528,5.297-7.8,5.297-12.807c0-5.01-1.766-9.279-5.297-12.807C97.56,12.266,93.291,10.5,88.282,10.5
		c-5.01,0-9.283,1.766-12.807,5.293c-3.531,3.528-5.295,7.797-5.295,12.807c0,5.007,1.764,9.279,5.295,12.807
		C79,44.938,83.272,46.7,88.282,46.7"/>
	<path clip-path="url(#SVGID_2_)" fill="#FFFFFF" d="M127.393,15.346c-1.508-1.504-3.341-2.26-5.494-2.26
		c-2.155,0-3.989,0.755-5.497,2.26c-1.508,1.508-2.263,3.341-2.263,5.494v28.447h-3.217v0.004h-48.5
		c-4.308,0-7.972,1.504-10.986,4.523c-3.019,3.016-4.527,6.679-4.527,10.988v33.614c0,2.156,0.752,3.99,2.263,5.498
		c1.508,1.508,3.338,2.263,5.494,2.263c2.152,0,3.986-0.755,5.494-2.263c1.511-1.508,2.262-3.342,2.262-5.498V69.972h5.175v73.698
		c0,2.475,0.888,4.605,2.666,6.382c1.774,1.78,3.905,2.672,6.382,2.672c2.479,0,4.606-0.892,6.384-2.672
		c1.778-1.776,2.667-3.907,2.667-6.382v-37.494h5.171v37.494c0,2.475,0.889,4.605,2.672,6.382c1.772,1.78,3.9,2.672,6.378,2.672
		c2.482,0,4.606-0.892,6.386-2.672c1.776-1.776,2.665-3.907,2.665-6.382V69.972h1.955h3.217c4.312,0,7.972-1.508,10.99-4.527
		c3.02-3.016,4.523-6.676,4.523-10.988V20.839C129.652,18.687,128.9,16.854,127.393,15.346"/>
</g>
</svg>
