<?xml version="1.0" encoding="utf-8"?>
<!-- Generator: Adobe Illustrator 16.0.0, SVG Export Plug-In . SVG Version: 6.00 Build 0)  -->
<!DOCTYPE svg PUBLIC "-//W3C//DTD SVG 1.1//EN" "http://www.w3.org/Graphics/SVG/1.1/DTD/svg11.dtd">
<svg version="1.1" id="Layer_1" xmlns="http://www.w3.org/2000/svg" xmlns:xlink="http://www.w3.org/1999/xlink" x="0px" y="0px"
	 width="176px" height="162px" viewBox="0 0 176 162" enable-background="new 0 0 176 162" xml:space="preserve">
<g>
	<g>
		<path fill="#FFFFFF" d="M88.282,46.7c5.009,0,9.276-1.762,12.806-5.293c3.531-3.528,5.297-7.8,5.297-12.807
			c0-5.01-1.766-9.279-5.297-12.807c-3.527-3.527-7.797-5.293-12.806-5.293c-5.01,0-9.283,1.766-12.807,5.293
			C71.944,19.321,70.18,23.59,70.18,28.6c0,5.007,1.764,9.279,5.295,12.807C79,44.938,83.272,46.7,88.282,46.7"/>
	</g>
	<g>
		<path fill="#FFFFFF" d="M127.393,15.346c-1.508-1.504-3.341-2.26-5.494-2.26c-2.154,0-3.988,0.755-5.496,2.26
			c-1.508,1.508-2.264,3.341-2.264,5.494v28.447h-3.217v0.004h-48.5c-4.308,0-7.972,1.504-10.986,4.523
			c-3.019,3.016-4.527,6.679-4.527,10.988v33.614c0,2.156,0.752,3.99,2.263,5.498c1.508,1.508,3.338,2.263,5.494,2.263
			c2.152,0,3.986-0.755,5.494-2.263c1.511-1.508,2.262-3.342,2.262-5.498V69.972h5.175v73.698c0,2.475,0.888,4.605,2.666,6.382
			c1.774,1.78,3.905,2.673,6.382,2.673c2.479,0,4.606-0.893,6.384-2.673c1.778-1.776,2.667-3.907,2.667-6.382v-37.494h5.171v37.494
			c0,2.475,0.889,4.605,2.672,6.382c1.771,1.78,3.9,2.673,6.378,2.673c2.481,0,4.606-0.893,6.386-2.673
			c1.776-1.776,2.665-3.907,2.665-6.382V69.972h1.955h3.218c4.312,0,7.971-1.508,10.989-4.527c3.021-3.016,4.522-6.676,4.522-10.988
			V20.839C129.652,18.687,128.9,16.854,127.393,15.346"/>
	</g>
</g>
</svg>
